<?xml version="1.0" standalone="no"?>
<!DOCTYPE svg PUBLIC "-//W3C//DTD SVG 20010904//EN"
 "http://www.w3.org/TR/2001/REC-SVG-20010904/DTD/svg10.dtd">
<svg version="1.0" xmlns="http://www.w3.org/2000/svg"
 width="980.000000pt" height="980.000000pt" viewBox="0 0 980.000000 980.000000"
 preserveAspectRatio="xMidYMid meet">
<metadata>
Created by potrace 1.14, written by Peter Selinger 2001-2017
</metadata>
<g transform="translate(0.000000,980.000000) scale(0.100000,-0.100000)"
fill="#000000" stroke="none">
<path d="M6003 9782 c-91 -47 -128 -160 -80 -249 21 -39 76 -83 104 -83 24 0
35 -13 52 -60 14 -38 23 -61 39 -102 12 -30 16 -27 -163 -138 -38 -23 -82 -51
-97 -61 -15 -11 -30 -19 -33 -19 -3 0 -27 -15 -53 -33 -26 -18 -63 -42 -83
-54 l-36 -20 -28 66 c-15 36 -37 86 -49 111 -11 25 -20 47 -21 50 0 3 -11 28
-24 55 -66 147 -65 141 -47 185 36 89 2 186 -79 227 -150 78 -314 -70 -250
-225 18 -43 53 -82 72 -82 7 0 13 -4 13 -9 0 -5 14 -11 30 -15 17 -3 33 -14
36 -23 4 -10 17 -40 29 -68 20 -43 44 -97 50 -115 1 -3 10 -23 19 -45 89 -202
83 -169 51 -305 -2 -8 -6 -26 -9 -40 -3 -14 -14 -63 -25 -110 -11 -47 -22 -96
-25 -110 -3 -14 -9 -40 -15 -58 -5 -18 -10 -35 -10 -37 1 -10 -13 -70 -18 -77
-4 -7 -40 12 -73 39 -8 7 -80 59 -160 117 l-145 103 3 46 c3 47 -16 108 -46
140 -23 25 -95 57 -129 57 -38 -1 -100 -24 -125 -47 -11 -10 -29 -36 -39 -58
-51 -112 16 -234 138 -251 29 -3 58 -13 64 -20 6 -8 17 -14 24 -14 8 0 15 -4
17 -8 2 -5 72 -57 156 -116 83 -59 152 -109 152 -112 0 -3 -185 -63 -215 -70
-5 -1 -30 -9 -54 -18 -56 -21 -67 -20 -101 4 -43 31 -131 35 -181 9 -56 -28
-97 -96 -97 -157 2 -79 35 -131 107 -164 80 -36 168 -10 220 66 28 40 38 46
118 71 48 15 93 28 98 30 6 1 17 5 25 8 60 22 139 44 144 39 3 -3 6 -1 6 5 0
5 7 10 15 10 10 0 13 -6 9 -19 -3 -10 -8 -30 -10 -45 -3 -16 -17 -75 -30 -133
-29 -120 -32 -134 -40 -174 -2 -16 -7 -32 -9 -36 -2 -4 -7 -22 -10 -41 -3 -19
-15 -68 -26 -111 -23 -90 -22 -83 -6 -100 34 -36 122 -151 119 -156 -2 -6 -27
-15 -77 -27 -11 -2 -65 -17 -120 -33 -97 -28 -100 -28 -119 -10 -44 41 -160
47 -216 11 -112 -72 -101 -222 20 -275 32 -14 106 -17 145 -7 17 5 45 23 64
40 19 17 41 32 50 34 9 2 50 14 91 25 81 24 206 58 230 65 8 2 15 4 15 5 0 1
15 4 33 6 17 3 32 1 32 -4 0 -5 9 -19 20 -32 27 -31 25 -39 -11 -47 -17 -3
-33 -12 -36 -19 -4 -10 132 -379 191 -519 7 -16 34 -86 61 -155 26 -69 51
-134 55 -145 5 -11 37 -92 70 -180 34 -88 82 -211 106 -273 24 -62 42 -117 39
-122 -6 -11 -259 -150 -271 -150 -5 1 -37 47 -72 103 -34 56 -68 111 -75 122
-6 11 -24 39 -39 62 -16 23 -28 46 -28 52 0 6 -4 11 -10 11 -5 0 -10 7 -10 15
0 8 -4 15 -10 15 -5 0 -10 5 -10 11 0 7 -20 42 -44 79 -41 62 -45 74 -51 151
-8 108 -13 169 -20 249 -15 185 -16 170 22 217 20 24 32 43 27 43 -4 0 -3 5 4
12 18 18 14 87 -7 134 -28 61 -77 94 -146 99 -72 5 -124 -19 -161 -74 -51 -78
-38 -182 31 -239 33 -27 34 -30 40 -117 3 -50 8 -106 10 -125 9 -73 16 -210
11 -218 -8 -14 -130 15 -141 34 -41 68 -95 101 -165 101 -169 0 -243 -218
-109 -320 61 -45 161 -44 220 2 23 18 27 18 144 -1 l120 -20 115 -185 c63
-101 122 -196 130 -211 8 -15 26 -42 39 -61 20 -27 21 -35 10 -42 -15 -10
-190 -108 -379 -212 -30 -17 -100 -56 -155 -88 l-100 -57 -21 22 c-12 12 -23
26 -25 32 -2 5 -47 70 -99 144 l-95 134 -1 503 c-1 500 -1 504 -22 533 -12 16
-22 33 -22 39 0 5 -4 11 -8 13 -8 3 -171 243 -178 263 -3 7 18 60 46 119 27
59 50 111 50 117 0 5 5 9 10 9 6 0 10 5 10 11 0 6 20 52 44 103 171 356 177
367 201 376 59 23 104 103 91 165 -3 11 -5 25 -5 31 -2 19 -61 75 -95 89 -36
15 -117 14 -157 -3 -14 -5 -40 -24 -56 -41 -48 -48 -55 -142 -13 -186 10 -11
18 -27 16 -35 -1 -8 -30 -73 -65 -145 -34 -71 -72 -151 -83 -177 -11 -27 -25
-48 -31 -48 -6 0 -8 -3 -4 -6 3 -4 -14 -47 -39 -97 -38 -75 -48 -87 -59 -76
-14 16 -278 408 -284 424 -2 5 -7 12 -10 15 -12 10 -111 162 -111 171 0 5 -4
9 -8 9 -17 0 -29 45 -21 75 5 16 11 41 13 55 3 14 16 72 29 130 66 280 79 336
81 355 2 11 9 40 16 65 7 25 13 51 14 59 2 10 114 61 129 58 1 0 75 24 165 52
l162 52 1 32 c0 18 2 41 4 52 3 11 6 48 7 82 2 35 5 63 8 63 3 0 5 17 6 38 2
92 13 163 29 178 21 22 36 59 42 105 12 91 -50 182 -133 195 -74 11 -128 -21
-169 -101 -28 -53 -11 -156 32 -200 23 -23 25 -29 19 -97 -4 -40 -9 -102 -12
-138 -3 -36 -11 -68 -17 -72 -10 -6 -167 -59 -187 -63 -3 -1 -25 -8 -49 -15
-42 -13 -44 -13 -63 11 -32 38 -100 120 -134 159 -17 19 -39 46 -50 59 -10 12
-33 39 -51 59 l-31 36 -1 130 -2 129 41 39 c22 22 38 43 35 48 -3 5 -1 11 5
15 13 8 13 54 -2 96 -49 140 -278 144 -333 5 -25 -61 -13 -114 35 -162 l39
-39 0 -163 c1 -144 3 -166 19 -187 18 -23 106 -126 127 -149 6 -6 30 -36 55
-66 25 -30 60 -70 77 -89 26 -29 31 -41 27 -66 -4 -16 -8 -39 -10 -50 -2 -11
-15 -67 -29 -125 -14 -58 -27 -118 -30 -134 -3 -16 -7 -32 -9 -35 -2 -3 -7
-22 -10 -41 -12 -68 -92 -410 -98 -415 -3 -3 -63 22 -134 56 -71 34 -160 76
-199 94 -38 18 -115 54 -170 81 -55 26 -106 49 -113 50 -23 4 -25 12 -22 71 1
32 4 87 5 123 2 36 4 65 5 65 0 0 3 45 5 100 3 55 7 129 9 165 3 36 8 121 11
190 l7 125 -46 134 c-46 135 -54 171 -37 171 11 0 21 32 28 87 6 54 -23 122
-70 157 -47 36 -133 44 -186 17 -91 -47 -126 -155 -79 -246 20 -39 45 -61 89
-79 31 -13 37 -21 49 -70 7 -31 17 -56 22 -56 4 0 7 -3 6 -7 -1 -5 7 -38 19
-74 12 -39 19 -86 17 -115 -12 -202 -17 -286 -19 -334 -5 -121 -18 -326 -20
-340 -2 -8 -4 -19 -4 -23 -1 -5 -5 -6 -10 -2 -6 3 -52 7 -103 10 -181 9 -370
20 -390 24 -3 0 -6 142 -7 314 0 171 0 331 0 355 -1 36 -4 42 -22 42 -18 0
-18 3 9 25 89 75 77 221 -25 285 -140 89 -315 -47 -263 -205 15 -46 52 -89 89
-105 l29 -12 0 -347 0 -348 -167 0 -167 -1 -14 32 c-61 138 -251 119 -291 -29
-15 -54 -4 -122 26 -165 31 -45 56 -60 111 -67 35 -4 52 0 88 21 l44 26 324
-5 c177 -3 343 -7 368 -9 57 -5 218 -15 335 -21 53 -3 104 -12 125 -22 19 -9
85 -40 145 -68 61 -29 148 -71 195 -93 273 -128 264 -122 233 -142 -13 -8 -14
-13 -5 -16 6 -3 12 -10 12 -15 0 -4 19 -36 43 -69 23 -33 47 -68 52 -78 12
-21 87 -133 98 -147 19 -25 58 -83 73 -110 9 -16 30 -46 45 -66 16 -20 29 -41
29 -47 0 -6 3 -12 8 -14 10 -4 52 -65 52 -76 0 -5 9 -17 20 -27 11 -10 20 -24
20 -31 0 -7 3 -14 8 -16 8 -3 102 -143 102 -152 0 -2 -37 -28 -82 -57 -46 -29
-120 -76 -165 -106 -45 -29 -85 -53 -88 -53 -3 0 -22 11 -43 23 -20 13 -50 32
-67 43 -16 10 -32 19 -35 19 -3 0 -26 14 -51 30 l-46 30 26 131 c14 72 34 143
44 157 40 61 31 166 -20 223 -94 103 -252 45 -269 -98 -7 -59 9 -116 44 -155
29 -31 29 -32 18 -91 l-11 -61 -30 15 c-16 8 -43 23 -60 34 -16 11 -37 23 -45
27 -8 3 -26 14 -40 23 -14 10 -41 26 -60 37 -106 59 -112 64 -96 87 8 11 33
51 55 87 29 48 52 73 80 88 77 39 104 85 97 161 -8 82 -76 134 -177 134 -56 1
-72 -3 -106 -27 -48 -33 -66 -66 -69 -127 -1 -31 4 -53 18 -73 l19 -27 -35
-59 c-52 -85 -62 -91 -81 -46 -8 21 -15 41 -15 45 0 4 -9 29 -20 56 -10 27
-39 106 -64 175 -41 114 -44 130 -35 165 15 51 5 99 -27 141 -53 69 -153 81
-221 27 -94 -76 -76 -211 37 -272 37 -20 42 -30 165 -376 36 -100 57 -136 81
-136 29 0 20 -24 -62 -149 -46 -73 -83 -135 -80 -140 3 -4 7 -18 10 -32 3 -13
12 -49 21 -79 9 -30 18 -65 21 -77 2 -12 9 -34 14 -48 5 -14 7 -25 4 -25 -4 0
-2 -6 3 -12 10 -12 20 -45 29 -95 8 -43 -26 -12 -72 66 -25 42 -49 83 -54 91
-5 8 -53 89 -106 180 -53 91 -104 173 -112 183 -8 9 -11 17 -7 17 4 0 1 8 -7
18 -9 9 -23 31 -32 47 -51 92 -57 97 -98 80 -13 -5 -18 0 -23 28 -7 35 -38 75
-80 103 -34 22 -137 27 -175 8 -70 -35 -109 -105 -96 -169 3 -11 5 -25 5 -32
1 -17 71 -83 88 -83 21 0 15 -18 -11 -32 l-24 -13 104 -174 c57 -96 104 -176
104 -179 0 -2 8 -16 18 -30 10 -15 33 -52 50 -83 l31 -55 -38 -30 c-22 -16
-47 -35 -58 -42 -151 -104 -188 -132 -186 -140 2 -10 -183 69 -223 95 -15 9
-23 27 -27 59 -6 57 -47 118 -96 143 -65 34 -166 17 -212 -35 -62 -70 -62
-178 -1 -247 28 -31 101 -59 141 -54 28 4 54 -4 116 -33 128 -61 208 -97 233
-105 30 -9 28 -18 -11 -34 -17 -8 -90 -41 -161 -73 -114 -51 -133 -57 -160
-49 -42 14 -132 6 -161 -13 -42 -28 -75 -70 -81 -104 -12 -65 25 -140 85 -172
35 -18 138 -20 171 -4 38 19 81 64 92 96 7 18 25 33 61 48 29 13 86 38 127 57
41 19 91 41 110 50 40 18 147 72 172 87 13 8 21 5 38 -16 l21 -27 62 45 c34
24 102 71 150 105 l88 60 52 -25 c59 -28 146 -68 262 -121 186 -85 275 -129
275 -137 0 -5 -4 -7 -8 -4 -16 10 -77 -14 -108 -42 -67 -60 -71 -153 -8 -216
19 -19 43 -38 52 -41 23 -8 260 -321 250 -331 -2 -2 -22 -6 -44 -9 -21 -3 -50
-8 -64 -10 -14 -3 -41 -7 -60 -10 -19 -3 -46 -7 -60 -10 -14 -3 -47 -7 -75
-11 -27 -3 -57 -7 -65 -9 -8 -1 -35 -6 -60 -10 -94 -14 -105 -16 -108 -20 -4
-4 -90 51 -102 64 -3 3 -27 22 -55 40 -27 19 -52 37 -55 41 -3 3 -24 18 -48
33 l-43 28 2 104 c1 88 5 111 25 151 28 55 30 100 9 151 -29 70 -77 103 -157
110 -54 5 -114 -21 -146 -62 -70 -89 -43 -226 54 -272 31 -15 33 -19 31 -62
l-2 -46 -195 -2 c-107 -1 -212 -2 -232 -2 -29 -1 -38 -5 -38 -18 -1 -15 -5
-13 -23 8 -105 125 -290 30 -273 -140 5 -57 38 -115 78 -140 32 -20 107 -22
143 -4 36 19 73 60 81 90 6 21 8 21 247 22 l241 0 183 -132 c100 -73 192 -137
203 -143 14 -8 36 -8 68 -2 53 10 85 15 156 23 27 3 54 9 60 12 6 3 1 -5 -10
-18 -86 -96 -64 -231 46 -286 24 -13 47 -26 52 -31 7 -7 112 -338 123 -390 3
-12 19 -64 35 -114 17 -51 30 -93 30 -95 0 -3 -161 80 -280 145 -36 19 -94 50
-130 69 -36 19 -69 38 -74 44 -6 5 -18 9 -28 9 -10 0 -18 4 -18 9 0 5 -17 16
-37 25 -21 9 -78 38 -128 65 -49 27 -123 66 -162 87 -40 20 -79 44 -87 53 -7
9 -36 59 -63 111 -48 91 -49 96 -35 124 62 123 -22 263 -159 263 -111 1 -195
-102 -175 -211 8 -43 45 -98 74 -111 12 -5 22 -13 22 -17 0 -5 9 -8 20 -8 11
0 26 -10 34 -22 27 -44 76 -139 76 -148 0 -9 -36 -27 -168 -86 l-53 -24 -37
30 c-51 41 -135 49 -193 20 -124 -64 -128 -253 -6 -317 74 -38 171 -20 226 43
17 18 36 35 43 36 7 2 15 6 18 9 3 3 48 24 100 47 52 23 118 52 145 66 l50 24
62 -34 c34 -19 90 -48 125 -66 35 -17 65 -35 66 -40 2 -4 10 -8 19 -8 8 0 27
-8 41 -18 15 -10 56 -33 92 -52 36 -18 88 -45 115 -60 28 -15 100 -53 160 -85
61 -32 131 -71 158 -87 26 -15 47 -25 47 -21 0 3 8 -1 18 -9 9 -8 25 -18 35
-21 10 -4 17 -11 15 -17 -4 -11 -226 -160 -239 -160 -5 0 -9 -4 -9 -10 0 -5
-4 -10 -10 -10 -5 0 -29 -14 -54 -31 -36 -26 -49 -30 -73 -24 -15 5 -32 9 -38
11 -5 1 -66 20 -135 42 -69 22 -185 59 -258 83 -126 40 -134 43 -160 83 -111
164 -357 69 -328 -127 18 -119 178 -187 276 -117 36 25 34 26 147 -11 52 -17
100 -32 107 -34 6 -1 18 -5 26 -8 8 -4 53 -18 99 -33 96 -30 97 -24 -22 -104
-51 -35 -81 -61 -79 -70 2 -8 26 -89 53 -180 27 -91 51 -172 53 -181 3 -9 14
-49 27 -90 12 -41 24 -79 25 -86 2 -14 38 -133 61 -208 9 -27 16 -52 16 -55 0
-3 3 -15 8 -28 7 -17 3 -34 -15 -66 -46 -82 -23 -194 51 -249 47 -36 146 -27
188 17 70 74 71 198 1 268 -23 23 -39 55 -55 108 -13 41 -28 91 -33 110 -6 19
-14 44 -18 55 -5 11 -24 76 -43 145 -20 69 -52 180 -71 247 -20 67 -36 124
-36 127 0 6 179 126 187 126 3 0 22 13 43 30 21 16 40 30 43 30 2 0 74 46 159
103 85 56 162 107 170 112 9 6 49 32 89 59 88 59 26 69 519 -84 91 -28 175
-53 187 -56 12 -2 35 -9 50 -16 16 -6 35 -12 43 -14 16 -3 85 -23 110 -32 8
-3 20 -6 25 -7 6 -2 62 -19 125 -38 63 -20 147 -45 185 -57 39 -12 84 -25 100
-31 l31 -9 -2 -88 c-1 -48 -4 -165 -6 -261 l-3 -173 -26 -14 c-15 -7 -28 -11
-31 -9 -6 6 -102 -31 -183 -72 -233 -117 -440 -357 -533 -618 -5 -16 -13 -39
-18 -50 -4 -11 -8 -24 -9 -30 -2 -5 -10 -37 -19 -70 -25 -96 -28 -131 -31
-300 -5 -289 61 -518 216 -745 109 -159 241 -277 407 -359 448 -223 966 -70
1264 374 71 107 158 312 174 411 3 22 8 42 9 45 19 31 28 364 12 464 -11 71
-44 197 -68 258 -52 138 -154 305 -241 397 -55 58 -177 161 -214 180 -16 8
-31 18 -34 21 -7 7 -97 50 -107 51 -4 0 -12 3 -18 8 -5 4 -28 13 -50 19 -88
27 -94 31 -89 60 2 14 6 123 8 241 2 118 5 225 5 236 1 18 18 28 104 59 56 20
111 40 122 45 11 5 151 57 310 115 160 58 302 111 317 117 22 8 43 42 113 183
l85 172 37 -3 c21 -2 79 -6 128 -9 110 -6 220 -12 345 -21 52 -3 120 -7 150
-8 34 -2 57 -8 61 -17 10 -20 23 -54 58 -144 17 -44 36 -93 42 -110 7 -16 13
-34 15 -40 1 -5 21 -57 44 -114 35 -90 39 -106 26 -120 -46 -53 -58 -124 -31
-188 20 -48 39 -68 84 -91 51 -25 102 -27 154 -4 40 18 92 70 92 92 0 5 3 12
8 16 15 15 6 91 -15 134 -13 25 -39 55 -58 68 -32 21 -43 43 -131 270 -53 136
-96 248 -95 248 1 1 28 5 61 9 33 3 74 8 90 11 17 2 50 6 75 9 25 2 59 7 75 9
17 3 59 8 95 11 36 4 67 8 70 10 3 2 36 6 73 10 l67 7 55 -53 54 -52 -5 -52
c-13 -119 68 -205 187 -200 62 3 95 20 134 71 78 102 13 260 -115 279 -40 6
-57 18 -146 104 -55 54 -108 97 -117 95 -9 -1 -40 -5 -69 -8 -29 -3 -62 -7
-73 -9 -11 -3 -49 -8 -85 -12 -36 -5 -72 -9 -80 -10 -8 -1 -44 -5 -80 -9 -36
-4 -73 -10 -82 -12 -10 -3 -18 -2 -18 1 0 16 84 113 95 109 12 -5 466 441 525
514 18 24 47 50 64 59 60 31 88 77 92 149 7 135 -100 226 -211 180 -89 -38
-124 -135 -89 -253 4 -14 2 -23 -5 -23 -6 0 -11 -5 -11 -11 0 -7 -92 -103
-204 -214 l-204 -202 -108 34 c-60 19 -113 35 -119 37 -28 7 -109 32 -180 54
-44 14 -84 27 -90 28 -5 2 -41 12 -80 24 -38 12 -97 29 -130 39 -65 19 -72 30
-44 71 31 47 37 89 22 155 -2 11 -6 45 -8 75 -3 30 -7 66 -10 79 -17 86 -16
124 8 170 29 57 33 107 12 157 -28 69 -72 101 -150 111 -136 16 -239 -141
-171 -263 18 -32 64 -74 95 -86 5 -2 11 -25 15 -53 3 -27 8 -60 10 -72 3 -12
7 -48 11 -80 3 -32 7 -67 9 -77 3 -21 -40 -106 -55 -106 -4 0 -28 7 -53 15
-36 12 -54 13 -93 4 -26 -6 -55 -12 -63 -14 -8 -2 -15 -4 -15 -5 0 -1 -12 -3
-26 -5 -14 -2 -45 -9 -70 -16 -24 -7 -46 -13 -49 -14 -9 -2 -125 -28 -136 -31
-5 -1 -46 -11 -90 -22 -43 -12 -90 -23 -104 -25 -14 -3 -32 -8 -40 -11 -8 -3
-26 -7 -40 -10 -14 -2 -74 -16 -134 -31 -59 -15 -116 -28 -125 -30 -9 -2 -44
-10 -77 -19 -34 -9 -66 -16 -71 -16 -5 0 -8 60 -6 142 2 79 4 178 4 221 1 68
4 79 23 89 11 6 23 14 26 17 3 3 21 14 40 23 19 10 67 35 105 57 39 21 102 56
140 77 39 20 72 40 75 43 3 3 28 18 55 32 76 39 271 147 465 257 63 36 138 77
165 92 28 15 115 64 195 108 80 44 159 84 175 87 33 7 43 9 65 18 8 3 56 17
105 32 50 14 226 71 391 125 166 55 312 102 325 105 164 37 169 39 169 66 0
26 1 27 63 23 34 -1 123 -5 197 -9 74 -3 171 -7 215 -10 146 -8 370 -18 402
-18 22 1 34 -5 38 -16 18 -59 142 -88 200 -48 38 27 51 43 71 87 35 79 -8 205
-81 234 -68 27 -137 11 -182 -43 -21 -26 -23 -26 -152 -26 -72 0 -131 2 -131
5 0 3 -37 6 -83 6 -45 1 -138 5 -207 8 -69 4 -164 8 -212 10 -48 1 -90 5 -94
8 -3 4 6 50 21 105 15 54 28 105 30 113 7 32 37 147 50 190 7 25 34 122 60
215 25 94 50 180 56 193 7 17 5 24 -6 28 -15 6 -22 26 -7 22 17 -5 55 27 82
69 56 88 24 206 -69 252 -51 24 -103 26 -153 3 -51 -23 -71 -44 -93 -96 -28
-67 -6 -162 48 -203 23 -17 23 -19 10 -63 -17 -52 -83 -288 -88 -310 -1 -8 -8
-35 -15 -60 -7 -25 -12 -46 -12 -47 1 -2 -4 -17 -10 -35 -5 -18 -20 -73 -33
-121 -13 -49 -25 -90 -27 -92 -2 -2 -17 -6 -33 -9 -28 -6 -101 -25 -220 -60
-27 -7 -188 -60 -357 -116 -168 -55 -319 -103 -334 -106 -15 -3 -32 -8 -38
-12 -6 -3 -19 -8 -28 -9 -10 -2 -23 -4 -29 -5 -7 -2 -27 34 -47 82 -18 47 -38
94 -42 105 -5 11 -32 79 -59 150 -50 131 -70 195 -57 184 4 -4 90 35 190 86
101 51 197 96 212 99 33 6 71 13 129 21 22 3 63 10 90 15 28 6 68 12 90 15 22
3 54 8 70 11 17 2 45 6 63 8 18 2 35 6 39 10 3 3 21 6 39 6 26 0 38 7 51 28
10 15 21 32 26 37 8 10 45 64 217 320 52 77 97 142 100 145 3 3 10 13 15 22 6
10 45 69 88 132 76 110 90 142 122 277 2 10 20 79 40 155 21 77 38 144 39 149
2 6 8 28 14 50 38 139 124 471 128 491 2 13 8 34 14 48 7 18 5 28 -6 37 -8 6
-17 9 -21 6 -3 -4 -12 -2 -19 3 -6 6 -16 10 -20 9 -5 -1 -16 0 -24 3 -8 3 -29
10 -46 15 l-31 10 -18 -61 c-9 -33 -19 -70 -21 -81 -2 -11 -20 -78 -39 -150
-20 -71 -38 -139 -40 -150 -2 -11 -15 -63 -30 -115 -14 -52 -28 -106 -31 -120
-2 -14 -7 -32 -10 -40 -3 -8 -16 -55 -29 -105 -63 -245 -69 -259 -118 -320
-17 -21 -299 -441 -309 -460 -6 -11 -14 -22 -17 -25 -11 -9 -61 -79 -61 -85 0
-4 -6 -13 -14 -21 -8 -7 -16 -18 -18 -23 -1 -5 -23 -12 -48 -15 -25 -3 -56 -8
-70 -11 -14 -3 -41 -7 -60 -10 -19 -2 -35 -4 -35 -5 0 -1 -9 -3 -20 -5 -11 -1
-38 -5 -60 -9 -22 -3 -51 -8 -65 -11 -14 -3 -46 -8 -72 -11 l-48 -7 0 54 c-1
30 -1 207 -1 393 l0 340 28 22 c15 13 31 23 35 24 4 0 16 7 25 15 10 8 106 75
213 149 107 74 200 138 205 143 6 4 44 30 85 57 41 28 77 52 80 56 3 3 35 25
73 50 62 40 67 47 68 79 0 20 0 265 0 545 1 502 1 510 22 550 32 59 30 149 -3
196 -33 48 -40 54 -76 69 -55 22 -128 2 -171 -48 -32 -36 -42 -71 -39 -134 3
-54 25 -99 67 -138 16 -14 18 -53 18 -495 l0 -479 -104 -72 c-58 -40 -110 -74
-117 -75 -8 -2 -13 11 -15 37 -1 22 -5 76 -9 120 -5 44 -7 105 -6 135 2 78
-13 123 -53 158 -67 59 -169 52 -224 -16 -36 -43 -45 -78 -36 -134 9 -49 69
-118 103 -118 24 0 34 -24 38 -95 1 -27 5 -89 9 -136 l7 -86 -72 -49 c-39 -27
-79 -53 -88 -59 -9 -5 -19 -13 -22 -16 -3 -3 -41 -30 -85 -60 -44 -30 -82 -57
-83 -62 -9 -19 -17 6 -16 50 4 115 -93 196 -213 178 -47 -7 -115 -62 -127
-102 -7 -21 -13 -23 -94 -22 -48 0 -92 0 -99 0 -15 -1 -42 -28 -128 -126 -82
-93 -72 -83 -154 -173 l-63 -71 -60 75 c-55 69 -59 77 -50 103 6 16 8 32 5 34
-2 3 0 14 5 24 5 10 12 36 15 58 3 22 10 53 16 68 6 15 9 27 6 27 -2 0 1 15 6
33 6 17 12 42 15 55 2 13 18 81 34 152 17 70 30 130 30 132 0 2 46 3 103 2
130 -3 597 -15 660 -18 l47 -2 0 46 c1 100 2 357 1 383 l-1 27 -90 0 c-79 0
-90 -2 -91 -17 0 -10 0 -68 0 -130 0 -78 -3 -112 -12 -115 -7 -3 -64 -3 -127
-1 -63 2 -182 5 -265 8 -82 2 -158 4 -168 4 -10 1 -16 5 -13 9 3 5 7 22 10 38
3 16 14 65 25 109 33 134 60 249 65 278 9 50 16 63 43 75 41 18 87 46 91 55 2
4 10 7 18 7 8 0 14 4 14 9 0 5 8 11 18 15 9 3 29 14 44 23 15 10 63 40 105 67
43 27 101 63 128 81 28 17 93 58 145 90 52 32 101 64 108 70 10 9 6 28 -18 95
-17 47 -35 94 -40 105 -5 11 -18 48 -30 81 -20 57 -21 64 -6 91 25 50 15 134
-23 181 -52 66 -148 90 -218 54z m69 -2317 c55 -31 127 -30 180 3 20 12 37 22
39 22 6 0 5 -918 -1 -922 -12 -9 -236 -117 -249 -120 -8 -2 -24 22 -42 67 -16
39 -28 70 -27 70 1 0 -16 47 -39 105 -44 113 -53 139 -51 143 1 1 -5 16 -14
32 -9 17 -30 67 -47 111 -39 104 -52 134 -61 134 -4 0 -25 -8 -46 -17 -22 -9
-45 -18 -53 -19 -13 -2 -80 62 -81 78 0 7 62 83 89 109 9 8 41 44 71 79 30 35
73 83 94 107 l39 43 77 0 c64 0 85 -4 122 -25z m-3056 -1052 c115 -69 180
-114 178 -123 -6 -37 -50 -264 -60 -315 -2 -11 -7 -33 -9 -50 -3 -16 -8 -37
-10 -45 -2 -8 -6 -31 -9 -50 -3 -19 -9 -47 -13 -62 l-8 -27 -75 35 c-41 19
-100 47 -130 61 -30 13 -62 28 -70 32 -12 6 -39 75 -54 141 -2 8 -21 74 -41
145 -62 216 -62 188 1 282 30 46 57 89 60 98 7 18 5 20 240 -122z m1119 -170
l45 -68 0 -398 0 -399 -27 6 c-16 3 -39 8 -53 10 -14 3 -36 7 -50 10 -13 3
-42 8 -65 11 -22 3 -74 12 -115 20 -74 14 -153 26 -167 27 -14 0 -96 35 -206
87 -59 28 -108 51 -110 50 -1 0 -30 14 -65 31 -48 23 -62 35 -58 48 3 9 7 33
10 52 3 19 8 46 11 60 2 14 19 99 36 190 33 176 41 209 50 213 3 1 67 -35 142
-79 l136 -82 201 129 c111 71 206 129 211 129 5 0 9 5 9 10 0 25 23 5 65 -57z
m-1024 -969 c19 -9 54 -25 79 -36 25 -11 52 -24 60 -29 8 -5 22 -12 30 -15 23
-9 96 -42 187 -85 45 -21 101 -41 125 -44 24 -3 66 -9 93 -15 28 -6 61 -12 75
-15 47 -8 195 -35 220 -39 53 -10 156 -28 175 -31 59 -9 104 -17 134 -25 19
-5 38 -7 42 -5 4 3 51 -56 104 -131 l96 -136 -6 -321 c-4 -177 -7 -330 -6
-340 0 -17 -6 -18 -57 -13 -31 3 -68 8 -82 10 -14 3 -47 8 -75 11 -27 4 -63 9
-80 11 -16 3 -43 7 -60 8 -16 2 -50 6 -75 10 -25 4 -79 11 -120 17 -41 5 -88
12 -105 14 -16 3 -55 8 -85 11 -30 3 -60 7 -67 9 -10 3 -93 129 -130 196 -10
19 0 38 84 164 88 132 98 144 131 150 82 15 148 104 139 188 -11 95 -67 152
-158 163 -73 8 -128 -18 -169 -82 -23 -38 -28 -54 -25 -97 1 -29 6 -61 9 -72
5 -15 -9 -44 -54 -109 -33 -48 -60 -92 -60 -97 0 -35 -42 18 -150 193 -69 110
-130 206 -135 212 -6 6 -40 50 -77 98 l-67 87 20 25 c28 35 35 105 15 145 -19
36 -19 36 25 15z m104 -743 c6 -11 34 -57 63 -103 29 -46 59 -92 65 -102 7
-11 47 -75 90 -142 42 -68 77 -128 77 -133 0 -6 3 -11 8 -11 4 0 20 -22 35
-50 34 -60 44 -66 127 -75 36 -4 67 -8 70 -10 3 -2 32 -6 66 -9 33 -4 71 -8
85 -11 46 -7 104 -16 144 -21 70 -8 119 -15 145 -19 14 -2 48 -7 75 -10 28 -3
59 -7 70 -9 19 -4 142 -19 158 -20 14 -1 24 -27 21 -54 -1 -15 -5 -168 -8
-341 -4 -173 -7 -315 -9 -317 -1 -1 -29 7 -62 18 -33 11 -69 21 -80 23 -11 2
-40 10 -65 18 -25 8 -92 29 -150 47 -58 17 -116 35 -130 40 -21 7 -143 44
-265 81 -16 4 -55 16 -85 26 -30 9 -57 18 -60 18 -3 1 -25 8 -50 15 -25 7 -47
14 -50 15 -3 0 -16 4 -30 9 -14 4 -68 21 -120 37 l-95 30 -18 62 c-27 92 -78
260 -84 277 -4 8 -7 20 -8 25 0 6 -4 17 -7 25 -12 32 -58 186 -64 218 -4 17
-10 32 -15 32 -5 0 -8 3 -7 8 1 4 -4 32 -11 63 -12 48 -11 59 2 85 25 48 16
135 -17 179 -16 20 -39 40 -52 45 -25 10 -32 26 -11 27 6 0 30 3 52 7 22 3 57
8 79 11 21 2 41 7 44 10 14 14 68 4 77 -14z m2822 -357 l23 -6 -23 -32 c-12
-17 -21 -32 -19 -34 6 -6 -360 -727 -373 -735 -8 -4 -58 -23 -112 -43 -54 -19
-111 -41 -128 -48 -16 -8 -48 -19 -70 -26 -22 -7 -53 -18 -70 -25 -47 -21
-336 -125 -345 -125 -7 0 -7 77 4 545 2 99 5 201 5 226 l1 45 118 29 c64 16
122 30 127 31 6 1 51 12 100 24 50 12 97 23 105 25 8 2 101 24 205 50 105 26
199 49 210 51 11 2 63 15 115 28 115 29 101 27 127 20z m323 -97 c65 -22 210
-67 233 -73 4 -1 8 -2 10 -4 1 -1 11 -4 22 -6 34 -8 50 -12 50 -14 0 -1 8 -3
18 -5 10 -2 26 -7 35 -11 9 -4 22 -8 27 -9 29 -7 124 -38 147 -48 l26 -12 -77
-95 -78 -95 -69 1 c-38 1 -118 5 -179 9 -60 4 -139 8 -175 10 -130 7 -295 17
-297 19 -1 1 38 84 88 184 103 209 81 194 219 149z"/>
<path d="M7725 8823 c-89 -47 -127 -142 -90 -229 20 -49 38 -68 86 -93 54 -28
138 -22 185 14 105 80 94 242 -20 301 -44 23 -124 27 -161 7z"/>
</g>
</svg>
